<?xml version="1.0" encoding="UTF-8"?>
<svg version="1.1" xmlns="http://www.w3.org/2000/svg" width="369" height="332">
<path d="M0 0 C1.88844503 -0.00435288 3.7768883 -0.00953794 5.66532898 -0.01548767 C10.77303914 -0.02882953 15.88067509 -0.02946152 20.98839927 -0.02692437 C25.26474306 -0.025851 29.54107206 -0.03074757 33.81741267 -0.03552979 C43.91507033 -0.04660918 54.01269078 -0.04707176 64.11035156 -0.04101562 C74.49630744 -0.03498188 84.88212765 -0.04727527 95.26806039 -0.06858569 C104.21110634 -0.08625478 113.15410933 -0.09219455 122.09717208 -0.08894795 C127.42677967 -0.08714279 132.75629054 -0.08969387 138.08588219 -0.10366249 C143.10353504 -0.11632221 148.12097804 -0.11422039 153.13862801 -0.1012516 C154.9690394 -0.09890358 156.79946593 -0.10155596 158.62985992 -0.10987473 C188.89825396 -0.23740248 214.11473759 9.52546966 235.98168945 30.6496582 C248.49078943 43.49210025 257.45444026 59.74709841 261.29418945 77.2746582 C261.4596738 77.92982579 261.62515814 78.58499338 261.79565716 79.26001453 C263.59842887 87.01333793 263.5839095 94.66094727 263.56884766 102.58398438 C263.57320302 104.1079025 263.5783889 105.63181845 263.58433533 107.1557312 C263.59765135 111.26967632 263.59831204 115.38352915 263.59577203 119.4974916 C263.59469677 122.94622249 263.59960005 126.39493513 263.60437745 129.84366208 C263.61544816 137.99002708 263.6159245 146.13634597 263.60986328 154.28271484 C263.603832 162.65101528 263.61611858 171.01914722 263.63743335 179.38741893 C263.65512585 186.60224347 263.66103852 193.81701477 263.65779561 201.03186017 C263.65599395 205.3274868 263.65850553 209.62299335 263.67251015 213.91860008 C263.68520827 217.96447114 263.68303292 222.01008248 263.67009926 226.05595016 C263.66775933 227.52837403 263.67037357 229.00081686 263.67872238 230.47321892 C263.83127662 259.50545019 252.97476231 284.20139643 232.91918945 304.9621582 C220.0767474 317.47125818 203.82174925 326.43490901 186.29418945 330.2746582 C185.67842639 330.44014255 185.06266333 330.60562689 184.42824078 330.77612591 C175.60171106 332.91586694 166.60680945 332.56307846 157.58837891 332.54931641 C155.69993387 332.55366929 153.8114906 332.55885435 151.92304993 332.56480408 C146.81533976 332.57814594 141.70770382 332.57877792 136.59997964 332.57624078 C132.32363585 332.57516741 128.04730684 332.58006397 123.77096623 332.5848462 C113.67330858 332.59592559 103.57568813 332.59638817 93.47802734 332.59033203 C83.09207146 332.58429829 72.70625126 332.59659167 62.32031852 332.6179021 C53.37727256 332.63557119 44.43426958 332.64151096 35.49120682 332.63826436 C30.16159924 332.63645919 24.83208836 332.63901027 19.50249672 332.6529789 C14.48484387 332.66563862 9.46740087 332.6635368 4.4497509 332.65056801 C2.61933951 332.64821999 0.78891297 332.65087236 -1.04148102 332.65919113 C-31.30987505 332.78671888 -56.52635869 323.02384675 -78.39331055 301.8996582 C-90.90241052 289.05721615 -99.86606135 272.802218 -103.70581055 255.2746582 C-103.87129489 254.61949061 -104.03677923 253.96432302 -104.20727825 253.28930187 C-106.01004996 245.53597847 -105.99553059 237.88836914 -105.98046875 229.96533203 C-105.98482411 228.4414139 -105.99000999 226.91749796 -105.99595642 225.39358521 C-106.00927245 221.27964008 -106.00993314 217.16578726 -106.00739312 213.05182481 C-106.00631787 209.60309392 -106.01122114 206.15438128 -106.01599854 202.70565432 C-106.02706926 194.55928932 -106.02754559 186.41297043 -106.02148438 178.26660156 C-106.0154531 169.89830112 -106.02773968 161.53016918 -106.04905444 153.16189748 C-106.06674694 145.94707294 -106.07265961 138.73230164 -106.0694167 131.51745623 C-106.06761505 127.22182961 -106.07012663 122.92632306 -106.08413124 118.63071632 C-106.09682936 114.58484526 -106.09465401 110.53923393 -106.08172035 106.49336624 C-106.07938042 105.02094238 -106.08199467 103.54849954 -106.09034348 102.07609749 C-106.24289772 73.04386622 -95.3863834 48.34791998 -75.33081055 27.5871582 C-62.4883685 15.07805823 -46.23337034 6.1144074 -28.70581055 2.2746582 C-28.09004748 2.10917386 -27.47428442 1.94368952 -26.83986187 1.7731905 C-18.01333215 -0.36655053 -9.01843054 -0.01376205 0 0 Z " fill="#0E0E0E" transform="translate(105.705810546875,-0.274658203125)"/>
<path d="M0 0 C1.88844503 -0.00435288 3.7768883 -0.00953794 5.66532898 -0.01548767 C10.77303914 -0.02882953 15.88067509 -0.02946152 20.98839927 -0.02692437 C25.26474306 -0.025851 29.54107206 -0.03074757 33.81741267 -0.03552979 C43.91507033 -0.04660918 54.01269078 -0.04707176 64.11035156 -0.04101562 C74.49630744 -0.03498188 84.88212765 -0.04727527 95.26806039 -0.06858569 C104.21110634 -0.08625478 113.15410933 -0.09219455 122.09717208 -0.08894795 C127.42677967 -0.08714279 132.75629054 -0.08969387 138.08588219 -0.10366249 C143.10353504 -0.11632221 148.12097804 -0.11422039 153.13862801 -0.1012516 C154.9690394 -0.09890358 156.79946593 -0.10155596 158.62985992 -0.10987473 C188.89825396 -0.23740248 214.11473759 9.52546966 235.98168945 30.6496582 C248.49078943 43.49210025 257.45444026 59.74709841 261.29418945 77.2746582 C261.4596738 77.92982579 261.62515814 78.58499338 261.79565716 79.26001453 C263.59842887 87.01333793 263.5839095 94.66094727 263.56884766 102.58398438 C263.57320302 104.1079025 263.5783889 105.63181845 263.58433533 107.1557312 C263.59765135 111.26967632 263.59831204 115.38352915 263.59577203 119.4974916 C263.59469677 122.94622249 263.59960005 126.39493513 263.60437745 129.84366208 C263.61544816 137.99002708 263.6159245 146.13634597 263.60986328 154.28271484 C263.603832 162.65101528 263.61611858 171.01914722 263.63743335 179.38741893 C263.65512585 186.60224347 263.66103852 193.81701477 263.65779561 201.03186017 C263.65599395 205.3274868 263.65850553 209.62299335 263.67251015 213.91860008 C263.68520827 217.96447114 263.68303292 222.01008248 263.67009926 226.05595016 C263.66775933 227.52837403 263.67037357 229.00081686 263.67872238 230.47321892 C263.83127662 259.50545019 252.97476231 284.20139643 232.91918945 304.9621582 C220.0767474 317.47125818 203.82174925 326.43490901 186.29418945 330.2746582 C185.67842639 330.44014255 185.06266333 330.60562689 184.42824078 330.77612591 C175.60171106 332.91586694 166.60680945 332.56307846 157.58837891 332.54931641 C155.69993387 332.55366929 153.8114906 332.55885435 151.92304993 332.56480408 C146.81533976 332.57814594 141.70770382 332.57877792 136.59997964 332.57624078 C132.32363585 332.57516741 128.04730684 332.58006397 123.77096623 332.5848462 C113.67330858 332.59592559 103.57568813 332.59638817 93.47802734 332.59033203 C83.09207146 332.58429829 72.70625126 332.59659167 62.32031852 332.6179021 C53.37727256 332.63557119 44.43426958 332.64151096 35.49120682 332.63826436 C30.16159924 332.63645919 24.83208836 332.63901027 19.50249672 332.6529789 C14.48484387 332.66563862 9.46740087 332.6635368 4.4497509 332.65056801 C2.61933951 332.64821999 0.78891297 332.65087236 -1.04148102 332.65919113 C-31.30987505 332.78671888 -56.52635869 323.02384675 -78.39331055 301.8996582 C-90.90241052 289.05721615 -99.86606135 272.802218 -103.70581055 255.2746582 C-103.87129489 254.61949061 -104.03677923 253.96432302 -104.20727825 253.28930187 C-106.01004996 245.53597847 -105.99553059 237.88836914 -105.98046875 229.96533203 C-105.98482411 228.4414139 -105.99000999 226.91749796 -105.99595642 225.39358521 C-106.00927245 221.27964008 -106.00993314 217.16578726 -106.00739312 213.05182481 C-106.00631787 209.60309392 -106.01122114 206.15438128 -106.01599854 202.70565432 C-106.02706926 194.55928932 -106.02754559 186.41297043 -106.02148438 178.26660156 C-106.0154531 169.89830112 -106.02773968 161.53016918 -106.04905444 153.16189748 C-106.06674694 145.94707294 -106.07265961 138.73230164 -106.0694167 131.51745623 C-106.06761505 127.22182961 -106.07012663 122.92632306 -106.08413124 118.63071632 C-106.09682936 114.58484526 -106.09465401 110.53923393 -106.08172035 106.49336624 C-106.07938042 105.02094238 -106.08199467 103.54849954 -106.09034348 102.07609749 C-106.24289772 73.04386622 -95.3863834 48.34791998 -75.33081055 27.5871582 C-62.4883685 15.07805823 -46.23337034 6.1144074 -28.70581055 2.2746582 C-28.09004748 2.10917386 -27.47428442 1.94368952 -26.83986187 1.7731905 C-18.01333215 -0.36655053 -9.01843054 -0.01376205 0 0 Z M-83.70581055 46.2746582 C-88.22022441 52.37307693 -91.28135457 59.1061946 -93.70581055 66.2746582 C-93.93268555 66.93336914 -94.15956055 67.59208008 -94.39331055 68.27075195 C-98.79255173 83.94304868 -95.69870722 101.87235784 -88.51831055 116.1496582 C-84.97848252 122.26666295 -80.71737078 127.31747295 -75.70581055 132.2746582 C-75.18889648 132.82508789 -74.67198242 133.37551758 -74.1394043 133.94262695 C-66.23328927 141.642316 -53.59789568 147.22734233 -42.70581055 148.2746582 C-42.5027832 149.33040039 -42.5027832 149.33040039 -42.2956543 150.4074707 C-38.65909888 167.08771893 -29.99592926 181.1901424 -15.85424805 190.97387695 C-2.51100275 199.05260547 9.16004089 201.73775833 24.6796875 201.61523438 C26.19853193 201.61438639 27.71737759 201.61486658 29.23622131 201.61656189 C33.32645858 201.61741659 37.41642763 201.5998768 41.506603 201.57884002 C45.79335374 201.55998484 50.08011178 201.55831585 54.36689758 201.55476379 C62.46976336 201.54546915 70.57250655 201.52089061 78.67531854 201.49071532 C87.90633592 201.4570906 97.13735941 201.44066508 106.36842287 201.42562902 C125.34374768 201.39433853 144.31895868 201.34162866 163.29418945 201.2746582 C162.36733325 203.1861575 161.43371716 205.09437987 160.49731445 207.0012207 C159.71855957 208.59571045 159.71855957 208.59571045 158.92407227 210.22241211 C153.79689382 219.82396768 145.48383824 225.71292686 135.29418945 229.2746582 C130.18005039 230.3567699 125.2310508 230.42694828 120.03079224 230.43287659 C119.10686641 230.43781456 118.18294058 230.44275254 117.23101699 230.44784015 C114.14025984 230.46317792 111.04952341 230.4715657 107.95874023 230.47998047 C105.7411328 230.48956191 103.52352718 230.49957215 101.30592346 230.50997925 C95.28788728 230.53700546 89.26984327 230.55802742 83.25178003 230.57798123 C76.96169263 230.59985484 70.67162927 230.62723681 64.38156128 230.65403748 C53.82477874 230.6982745 43.26798728 230.73911288 32.71118164 230.77734375 C21.83910152 230.81672569 10.9670324 230.85815836 0.0949707 230.90234375 C-0.91077579 230.90643016 -0.91077579 230.90643016 -1.9368404 230.91059912 C-5.30063276 230.92427904 -8.66442496 230.93799923 -12.02821708 230.95173943 C-39.92072571 231.06553084 -67.8132575 231.17237609 -95.70581055 231.2746582 C-95.33221968 231.70022554 -94.9586288 232.12579288 -94.573717 232.56425619 C-91.04054401 236.630915 -87.76372252 240.81023713 -84.57424927 245.14831543 C-64.31522125 272.19223944 -39.55369456 304.27473448 -4.39403915 310.06297302 C21.44672441 313.55023194 47.86693964 312.01003163 73.79824805 310.38315678 C85.72017385 309.65112951 97.64300704 309.35405616 109.58261132 309.07247066 C127.21832922 308.64106534 144.85211965 308.06525474 162.46551514 307.06585312 C164.33508605 306.96134296 166.20502762 306.8632084 168.07531357 306.77238846 C188.09050197 305.77945584 208.00966511 301.57311538 222.29418945 286.2746582 C234.26090495 271.75802575 240.89422861 255.30638795 239.51733398 236.37084961 C237.60158303 218.37452828 228.33708364 203.64907773 214.78637695 192.14575195 C205.9888113 185.5970817 196.0960478 181.87581862 185.29418945 180.2746582 C185.23231445 179.0371582 185.17043945 177.7996582 185.10668945 176.5246582 C183.52189794 162.86118544 174.77633451 149.91929576 164.29418945 141.2746582 C149.88616421 130.70877302 135.92972262 126.95514739 118.34106445 127.04760742 C116.83251452 127.04817227 115.32396404 127.04785353 113.81541443 127.04672241 C109.73952314 127.04615078 105.66375061 127.05787427 101.58788681 127.07187033 C97.32112995 127.0844094 93.0543701 127.08555069 88.78759766 127.08792114 C80.716539 127.09412659 72.64553481 127.11052472 64.57450008 127.13062012 C55.38223593 127.15300827 46.18996912 127.16397988 36.99768448 127.17401099 C18.09648865 127.19489181 -0.80465657 127.23004955 -19.70581055 127.2746582 C-19.24044504 125.83237122 -18.77108574 124.39137247 -18.30004883 122.95092773 C-18.03910431 122.14833527 -17.77815979 121.3457428 -17.50930786 120.51882935 C-14.21248313 111.31078498 -6.75722597 104.55542558 1.6574707 99.9934082 C8.86853467 96.59996634 15.65488883 96.12544648 23.5196228 96.11643982 C24.43946508 96.11150184 25.35930736 96.10656386 26.30702364 96.10147625 C29.38396125 96.08613912 32.46087805 96.07775088 35.5378418 96.06933594 C37.74559715 96.05975444 39.95335068 96.0497442 42.16110229 96.03933716 C48.15227978 96.01231148 54.14346513 95.99128923 60.13466978 95.97133517 C66.39673003 95.94946123 72.65876613 95.92207942 78.92080688 95.89527893 C89.43051076 95.85104227 99.94022395 95.81020381 110.44995117 95.77197266 C121.27352873 95.73259049 132.09709524 95.69115777 142.9206543 95.64697266 C143.58816497 95.64424838 144.25567563 95.64152411 144.9434139 95.63871729 C148.29222219 95.62503736 151.64103032 95.61131717 154.98983836 95.59757698 C182.75793277 95.48378625 210.52605044 95.37694086 238.29418945 95.2746582 C237.73406205 94.63632446 237.73406205 94.63632446 237.16261894 93.98509508 C233.62840361 89.91622867 230.34528762 85.73518498 227.14775085 81.40000916 C206.91338981 54.46718462 182.16025074 22.28792402 147.10336494 16.49781227 C121.49975037 13.03407916 95.31598053 14.58293487 69.62435329 16.22270143 C57.81407027 16.96096994 46.00236998 17.27019178 34.17405665 17.56207192 C16.70575386 18.00660343 -0.75680466 18.60138235 -18.2030468 19.59657097 C-20.0553844 19.70144022 -21.9080012 19.80151999 -23.76089096 19.89613342 C-48.19490648 21.16725138 -67.60709643 27.00037274 -83.70581055 46.2746582 Z " fill="#F1F1F1" transform="translate(105.705810546875,-0.274658203125)"/>
<path d="M0 0 C0.79487764 -0.0220214 1.58975529 -0.0440428 2.40872014 -0.06673151 C5.07625803 -0.13869997 7.74391312 -0.20339675 10.41165161 -0.26747131 C11.34618227 -0.29133345 12.28071293 -0.31519558 13.2435627 -0.33978081 C31.75311314 -0.81221125 50.26521977 -1.09494502 68.77934074 -1.31436825 C80.55652234 -1.45742721 92.32732384 -1.65624682 104.10061646 -1.99598694 C114.39002655 -2.29281936 124.67491085 -2.4799748 134.96851456 -2.54119688 C140.40530862 -2.57708053 145.82960415 -2.66285046 151.26241684 -2.88033867 C188.05791892 -4.29605991 188.05791892 -4.29605991 202.90853369 9.16211385 C209.62642216 15.65202186 215.73005514 22.72789035 221.16604614 30.3221283 C221.16604614 30.6521283 221.16604614 30.9821283 221.16604614 31.3221283 C219.79527876 31.32294545 219.79527876 31.32294545 218.39681911 31.32377911 C196.10976644 31.33877888 173.82291306 31.38135473 151.53597164 31.45421886 C140.75793659 31.48879864 129.9800285 31.51421517 119.20193481 31.51768494 C109.80228706 31.5207346 100.40286584 31.54135939 91.00330549 31.58265287 C86.03119948 31.60389378 81.05941479 31.61662954 76.08726311 31.60828209 C71.39622697 31.60068523 66.70583888 31.61679119 62.01492119 31.65018845 C60.30386768 31.65835436 58.59274889 31.65825234 56.88170242 31.64872551 C38.73997292 31.55780936 23.43848019 36.23427377 9.70510864 48.76353455 C0.8807827 57.69984432 -6.05513078 70.87036672 -7.83395386 83.3221283 C-17.40128561 81.73892215 -25.83065602 76.52391862 -31.71286011 68.88072205 C-39.34158341 57.68449557 -41.51500005 45.67047395 -39.83395386 32.3221283 C-36.90272282 20.84473034 -29.82423881 11.56367775 -19.83395386 5.3221283 C-13.10268194 1.496706 -7.76706067 0.18367115 0 0 Z " fill="#F1F1F1" transform="translate(71.83395385742188,42.67787170410156)"/>
<path d="M0 0 C10.90120116 2.93791237 20.94641189 9.03661275 26.73046875 18.97265625 C32.14754852 29.56233952 33.94357218 39.91195076 31.12890625 51.625 C26.60911475 64.19150226 18.96890381 72.88884149 6.93431091 78.6076355 C-1.60487923 82.06796302 -10.18083956 81.89055741 -19.26147461 82.02783203 C-21.18664993 82.07398216 -23.11178541 82.12181993 -25.03688049 82.17120361 C-31.32489471 82.32195514 -37.61318573 82.4192619 -43.90234375 82.5078125 C-44.97853194 82.52365057 -46.05472014 82.53948863 -47.1635201 82.55580664 C-57.34650194 82.70409575 -67.52955088 82.83266346 -77.71330929 82.91320992 C-90.65402938 83.01674732 -103.58490318 83.21710929 -116.52172846 83.55336106 C-125.66539098 83.78277039 -134.80643813 83.89779557 -143.95288664 83.93191803 C-149.39380242 83.95516764 -154.82369712 84.02496639 -160.26142693 84.21899796 C-197.0220856 85.47099306 -197.0220856 85.47099306 -211.44191486 72.48883665 C-217.92814455 66.25026357 -223.9403753 59.45058937 -229 52 C-229 51.34 -229 50.68 -229 50 C-227.63419784 49.99780016 -227.63419784 49.99780016 -226.24080372 49.99555588 C-204.0462615 49.95844238 -181.85187143 49.89936744 -159.65745258 49.81609726 C-148.92422052 49.77635279 -138.1910613 49.74393698 -127.45776367 49.72900391 C-118.09844191 49.71596358 -108.73928072 49.68893822 -99.38004941 49.64538693 C-94.42817268 49.62282566 -89.4764936 49.60708611 -84.52456093 49.60811615 C-79.85494372 49.60886592 -75.18576254 49.59078861 -70.51625824 49.55883217 C-68.81081573 49.550377 -67.10532405 49.54855313 -65.39986992 49.55419731 C-47.81818762 49.60459231 -31.02198529 45.46276247 -17.8359375 33 C-8.9297372 23.29792648 -3.87672532 12.44632864 0 0 Z " fill="#EFEFEF" transform="translate(291,202)"/>
<path d="M0 0 C19.48066228 -0.09363014 38.96127861 -0.16407048 58.4421196 -0.20724869 C67.48834526 -0.22783403 76.53443074 -0.25587718 85.58056641 -0.30175781 C93.46936589 -0.34174938 101.35806379 -0.36746206 109.24696183 -0.37635398 C113.42032088 -0.38154797 117.59338944 -0.39367069 121.76665497 -0.42292023 C125.7032403 -0.45028462 129.63941844 -0.4584031 133.57608986 -0.45243073 C135.0126982 -0.45352165 136.44932166 -0.46134968 137.88584709 -0.4768219 C150.39164056 -0.60478917 161.62237035 1.18893548 171 10 C176.22443885 15.17642011 180.18011439 20.18527644 183 27 C183 27.99 183 28.98 183 30 C163.35439286 30.07017709 143.70881126 30.12303075 124.06310463 30.15543652 C114.94062731 30.17088508 105.81822801 30.19193603 96.69580078 30.22631836 C88.74183135 30.25628241 80.78791844 30.27558961 72.83389413 30.28226548 C68.62488515 30.2861659 64.41603785 30.29529023 60.20708084 30.31719017 C56.23935953 30.33766619 52.27186535 30.34381152 48.30409622 30.33932304 C46.85375735 30.3401433 45.40341029 30.3460425 43.95311737 30.35761642 C29.58025128 30.46661897 20.13676801 27.99728835 9.39013672 18.37597656 C4.08165388 13.12156678 1.96574426 7.03240258 0 0 Z " fill="#F2F2F2" transform="translate(86,149)"/>
<path d="M0 0 C0 0.33 0 0.66 0 1 C-59.07 1 -118.14 1 -179 1 C-176.1484882 -1.8515118 -174.2163538 -1.2663189 -170.21865845 -1.29193115 C-169.16064673 -1.30273645 -169.16064673 -1.30273645 -168.08126104 -1.31376004 C-165.70600191 -1.335534 -163.33091023 -1.34301694 -160.95556641 -1.35058594 C-159.25734334 -1.36315198 -157.55912635 -1.37656415 -155.86091614 -1.39076233 C-151.23903806 -1.42671698 -146.61717457 -1.45002483 -141.9952054 -1.4705801 C-137.16435916 -1.49361025 -132.33357654 -1.52628986 -127.5027771 -1.55743408 C-119.38697032 -1.60812678 -111.2711507 -1.65039209 -103.15527344 -1.68798828 C-93.76782768 -1.73160375 -84.38055322 -1.78966305 -74.99323714 -1.85523582 C-66.94143172 -1.91109417 -58.88960731 -1.95907842 -50.83771455 -2.0004847 C-46.0253318 -2.02524457 -41.21300714 -2.05276456 -36.40068436 -2.08739471 C-31.87489821 -2.11952944 -27.34916929 -2.14179181 -22.82329369 -2.15640068 C-21.16079443 -2.16338793 -19.49830563 -2.17382981 -17.83585167 -2.18795204 C-15.56892754 -2.2066501 -13.30230017 -2.21292011 -11.03530884 -2.21600342 C-9.13109382 -2.22593386 -9.13109382 -2.22593386 -7.18840981 -2.23606491 C-4.18222801 -2.01349188 -2.51603357 -1.59076934 0 0 Z " fill="#C6C6C6" transform="translate(293,73)"/>
<path d="M0 0 C48.84 0 97.68 0 148 0 C148 0.33 148 0.66 148 1 C99.82 1.33 51.64 1.66 2 2 C2.33 3.32 2.66 4.64 3 6 C3.99 6.33 4.98 6.66 6 7 C5.01 7.33 4.02 7.66 3 8 C0 2.25 0 2.25 0 0 Z " fill="#FCFBFC" transform="translate(86,149)"/>
<path d="M0 0 C0.33 0 0.66 0 1 0 C1.05793591 4.43744539 1.09357467 8.87479389 1.125 13.3125 C1.15013672 15.20645508 1.15013672 15.20645508 1.17578125 17.13867188 C1.18222656 18.34716797 1.18867188 19.55566406 1.1953125 20.80078125 C1.20578613 21.91622314 1.21625977 23.03166504 1.22705078 24.1809082 C1 27 1 27 -1 30 C-2.00984399 24.95885883 -2.18327768 20.11744878 -2.1875 15 C-2.19974609 14.21882813 -2.21199219 13.43765625 -2.22460938 12.6328125 C-2.23626073 8.01887656 -1.76075564 4.34273329 0 0 Z " fill="#262626" transform="translate(12,69)"/>
<path d="M0 0 C1.32 0.33 2.64 0.66 4 1 C3.01 1.495 3.01 1.495 2 2 C2.26676204 3.98491642 2.26676204 3.98491642 3 6 C3.99 6.33 4.98 6.66 6 7 C5.01 7.33 4.02 7.66 3 8 C0 2.25 0 2.25 0 0 Z " fill="#F7F7F7" transform="translate(86,149)"/>
</svg>
